<svg width="106" height="22" viewBox="0 0 106 22" fill="none" xmlns="http://www.w3.org/2000/svg">
<path d="M1.3 17C0.708 17 0.412 16.704 0.412 16.112V1.88C0.412 1.288 0.708 0.991999 1.3 0.991999H10.036C10.628 0.991999 10.924 1.288 10.924 1.88C10.924 2.464 10.628 2.756 10.036 2.756H2.176V8.036H7.204C7.796 8.036 8.092 8.328 8.092 8.912C8.092 9.504 7.796 9.8 7.204 9.8H2.176V15.236H10.036C10.628 15.236 10.924 15.528 10.924 16.112C10.924 16.704 10.628 17 10.036 17H1.3ZM17.4423 17C16.1303 17 15.1583 16.684 14.5263 16.052C13.8943 15.42 13.5783 14.448 13.5783 13.136C13.5783 11.824 13.8903 10.852 14.5143 10.22C15.1463 9.588 16.1223 9.272 17.4423 9.272H22.6383C22.6063 8.36 22.3823 7.732 21.9663 7.388C21.5503 7.044 20.8423 6.872 19.8423 6.872H18.4503C17.5783 6.872 16.9303 6.944 16.5063 7.088C16.0903 7.232 15.8103 7.484 15.6663 7.844C15.5543 8.132 15.4303 8.336 15.2943 8.456C15.1663 8.568 14.9663 8.624 14.6943 8.624C14.3983 8.624 14.1663 8.544 13.9983 8.384C13.8383 8.216 13.7903 7.996 13.8543 7.724C14.0463 6.82 14.5183 6.16 15.2703 5.744C16.0223 5.32 17.0823 5.108 18.4503 5.108H19.8423C21.4023 5.108 22.5543 5.48 23.2983 6.224C24.0423 6.968 24.4143 8.12 24.4143 9.68V16.112C24.4143 16.704 24.1223 17 23.5383 17C22.9463 17 22.6503 16.704 22.6503 16.112V15.356C21.8263 16.452 20.5383 17 18.7863 17H17.4423ZM17.4423 15.236H18.7863C19.4343 15.236 20.0303 15.172 20.5743 15.044C21.1183 14.916 21.5743 14.692 21.9423 14.372C22.3103 14.052 22.5463 13.604 22.6503 13.028V11.036H17.4423C16.6183 11.036 16.0623 11.184 15.7743 11.48C15.4863 11.768 15.3423 12.32 15.3423 13.136C15.3423 13.96 15.4863 14.516 15.7743 14.804C16.0623 15.092 16.6183 15.236 17.4423 15.236ZM31.7418 16.988C30.7338 16.988 29.9458 16.78 29.3778 16.364C28.8098 15.94 28.4538 15.304 28.3098 14.456C28.2618 14.168 28.3178 13.94 28.4778 13.772C28.6458 13.604 28.8778 13.52 29.1738 13.52C29.4538 13.52 29.6578 13.592 29.7858 13.736C29.9218 13.88 30.0298 14.096 30.1098 14.384C30.1978 14.712 30.3658 14.936 30.6138 15.056C30.8618 15.168 31.2378 15.224 31.7418 15.224H35.6778C36.3418 15.224 36.7898 15.112 37.0218 14.888C37.2618 14.656 37.3818 14.2 37.3818 13.52C37.3818 12.84 37.2618 12.384 37.0218 12.152C36.7898 11.92 36.3418 11.804 35.6778 11.804H31.8018C30.6898 11.804 29.8538 11.528 29.2938 10.976C28.7338 10.416 28.4538 9.58 28.4538 8.468C28.4538 7.332 28.7258 6.488 29.2698 5.936C29.8218 5.376 30.6658 5.096 31.8018 5.096H35.5578C37.4138 5.096 38.4898 5.892 38.7858 7.484C38.8338 7.78 38.7738 8.008 38.6058 8.168C38.4458 8.328 38.2178 8.408 37.9218 8.408C37.6498 8.408 37.4458 8.336 37.3098 8.192C37.1738 8.048 37.0698 7.844 36.9978 7.58C36.9178 7.3 36.7658 7.112 36.5418 7.016C36.3258 6.912 35.9978 6.86 35.5578 6.86H31.8018C31.1618 6.86 30.7378 6.964 30.5298 7.172C30.3218 7.38 30.2178 7.812 30.2178 8.468C30.2178 9.076 30.3258 9.492 30.5418 9.716C30.7658 9.932 31.1858 10.04 31.8018 10.04H35.6778C36.8458 10.04 37.7138 10.328 38.2818 10.904C38.8578 11.48 39.1458 12.352 39.1458 13.52C39.1458 14.688 38.8578 15.56 38.2818 16.136C37.7138 16.704 36.8458 16.988 35.6778 16.988H31.7418ZM46.3518 21.8C45.2318 21.8 44.3958 21.52 43.8438 20.96C43.2998 20.408 43.0278 19.568 43.0278 18.44C43.0278 17.856 43.3198 17.564 43.9038 17.564C44.4958 17.564 44.7918 17.856 44.7918 18.44C44.7918 19.08 44.8918 19.504 45.0918 19.712C45.2998 19.928 45.7198 20.036 46.3518 20.036H50.8398C51.4718 20.036 51.8918 19.928 52.0998 19.712C52.3078 19.504 52.4118 19.08 52.4118 18.44V15.308C51.9398 15.988 51.3758 16.44 50.7198 16.664C50.0638 16.888 49.3358 17 48.5358 17H47.5278C45.9838 17 44.8478 16.636 44.1198 15.908C43.3918 15.18 43.0278 14.052 43.0278 12.524V5.984C43.0278 5.392 43.3198 5.096 43.9038 5.096C44.4958 5.096 44.7918 5.392 44.7918 5.984V12.524C44.7918 13.564 44.9838 14.276 45.3678 14.66C45.7598 15.044 46.4798 15.236 47.5278 15.236H48.5358C49.8798 15.236 50.8598 15.012 51.4758 14.564C52.0998 14.116 52.4118 13.436 52.4118 12.524V5.984C52.4118 5.392 52.7038 5.096 53.2878 5.096C53.8798 5.096 54.1758 5.392 54.1758 5.984V18.44C54.1758 19.568 53.8998 20.408 53.3478 20.96C52.7958 21.52 51.9598 21.8 50.8398 21.8H46.3518ZM63.7698 17C61.9698 17 60.6418 16.576 59.7858 15.728C58.9378 14.872 58.5138 13.544 58.5138 11.744V6.248C58.5138 4.432 58.9378 3.1 59.7858 2.252C60.6338 1.404 61.9538 0.983999 63.7458 0.991999H66.6498C68.1378 0.991999 69.2658 1.304 70.0338 1.928C70.8018 2.544 71.2418 3.52 71.3538 4.856C71.3938 5.152 71.3378 5.38 71.1858 5.54C71.0338 5.692 70.8098 5.768 70.5138 5.768C69.9778 5.768 69.6698 5.472 69.5898 4.88C69.5178 4.064 69.2578 3.508 68.8098 3.212C68.3618 2.908 67.6418 2.756 66.6498 2.756H63.7458C62.8738 2.756 62.1858 2.864 61.6818 3.08C61.1778 3.288 60.8178 3.648 60.6018 4.16C60.3858 4.664 60.2778 5.36 60.2778 6.248V11.744C60.2778 12.624 60.3858 13.32 60.6018 13.832C60.8178 14.336 61.1778 14.696 61.6818 14.912C62.1938 15.128 62.8898 15.236 63.7698 15.236H66.6498C67.6418 15.236 68.3618 15.088 68.8098 14.792C69.2578 14.488 69.5178 13.928 69.5898 13.112C69.6698 12.52 69.9778 12.224 70.5138 12.224C70.8098 12.224 71.0338 12.304 71.1858 12.464C71.3378 12.616 71.3938 12.84 71.3538 13.136C71.2418 14.48 70.8018 15.46 70.0338 16.076C69.2658 16.692 68.1378 17 66.6498 17H63.7698ZM78.6141 17C77.3021 17 76.3301 16.684 75.6981 16.052C75.0661 15.42 74.7501 14.448 74.7501 13.136C74.7501 11.824 75.0621 10.852 75.6861 10.22C76.3181 9.588 77.2941 9.272 78.6141 9.272H83.8101C83.7781 8.36 83.5541 7.732 83.1381 7.388C82.7221 7.044 82.0141 6.872 81.0141 6.872H79.6221C78.7501 6.872 78.1021 6.944 77.6781 7.088C77.2621 7.232 76.9821 7.484 76.8381 7.844C76.7261 8.132 76.6021 8.336 76.4661 8.456C76.3381 8.568 76.1381 8.624 75.8661 8.624C75.5701 8.624 75.3381 8.544 75.1701 8.384C75.0101 8.216 74.9621 7.996 75.0261 7.724C75.2181 6.82 75.6901 6.16 76.4421 5.744C77.1941 5.32 78.2541 5.108 79.6221 5.108H81.0141C82.5741 5.108 83.7261 5.48 84.4701 6.224C85.2141 6.968 85.5861 8.12 85.5861 9.68V16.112C85.5861 16.704 85.2941 17 84.7101 17C84.1181 17 83.8221 16.704 83.8221 16.112V15.356C82.9981 16.452 81.7101 17 79.9581 17H78.6141ZM78.6141 15.236H79.9581C80.6061 15.236 81.2021 15.172 81.7461 15.044C82.2901 14.916 82.7461 14.692 83.1141 14.372C83.4821 14.052 83.7181 13.604 83.8221 13.028V11.036H78.6141C77.7901 11.036 77.2341 11.184 76.9461 11.48C76.6581 11.768 76.5141 12.32 76.5141 13.136C76.5141 13.96 76.6581 14.516 76.9461 14.804C77.2341 15.092 77.7901 15.236 78.6141 15.236ZM91.0656 17C90.4736 17 90.1776 16.704 90.1776 16.112V5.984C90.1776 5.4 90.4736 5.108 91.0656 5.108C91.6496 5.108 91.9416 5.4 91.9416 5.984V7.232C92.3976 6.536 92.9976 6.008 93.7416 5.648C94.4936 5.288 95.3656 5.108 96.3576 5.108C96.9496 5.108 97.2456 5.4 97.2456 5.984C97.2456 6.576 96.9496 6.872 96.3576 6.872C94.9576 6.872 93.8856 7.152 93.1416 7.712C92.3976 8.264 91.9976 9.02 91.9416 9.98V16.112C91.9416 16.704 91.6496 17 91.0656 17ZM104.989 17C103.445 17 102.309 16.636 101.581 15.908C100.853 15.18 100.489 14.048 100.489 12.512V6.872H99.2294C98.6374 6.872 98.3414 6.576 98.3414 5.984C98.3414 5.4 98.6374 5.108 99.2294 5.108H100.489V3.08C100.489 2.488 100.781 2.192 101.365 2.192C101.957 2.192 102.253 2.488 102.253 3.08V5.108H105.097C105.681 5.108 105.973 5.4 105.973 5.984C105.973 6.576 105.681 6.872 105.097 6.872H102.253V12.512C102.253 13.568 102.445 14.288 102.829 14.672C103.221 15.048 103.941 15.236 104.989 15.236C105.277 15.236 105.497 15.308 105.649 15.452C105.801 15.588 105.877 15.808 105.877 16.112C105.877 16.704 105.581 17 104.989 17Z" fill="white"/>
</svg>
